<mxfile host="65bd71144e">
    <diagram id="t8ZJe_a7WiUoew32pm0B" name="Page-1">
        <mxGraphModel dx="1074" dy="614" grid="1" gridSize="10" guides="1" tooltips="1" connect="1" arrows="1" fold="1" page="1" pageScale="1" pageWidth="827" pageHeight="1169" math="0" shadow="0">
            <root>
                <mxCell id="0"/>
                <mxCell id="1" parent="0"/>
                <mxCell id="15" style="edgeStyle=none;html=1;" parent="1" source="2" target="16" edge="1">
                    <mxGeometry relative="1" as="geometry">
                        <mxPoint x="420" y="380" as="targetPoint"/>
                    </mxGeometry>
                </mxCell>
                <mxCell id="2" value="Fetch level details" style="rounded=1;whiteSpace=wrap;html=1;" parent="1" vertex="1">
                    <mxGeometry x="360" y="240" width="120" height="60" as="geometry"/>
                </mxCell>
                <mxCell id="21" style="edgeStyle=none;html=1;" parent="1" source="16" target="20" edge="1">
                    <mxGeometry relative="1" as="geometry"/>
                </mxCell>
                <mxCell id="16" value="Fetch child level details using level" style="rounded=1;whiteSpace=wrap;html=1;" parent="1" vertex="1">
                    <mxGeometry x="360" y="380" width="120" height="60" as="geometry"/>
                </mxCell>
                <mxCell id="24" value="No" style="edgeStyle=none;html=1;" parent="1" source="20" target="23" edge="1">
                    <mxGeometry relative="1" as="geometry"/>
                </mxCell>
                <mxCell id="20" value="Are destinations unique?" style="rhombus;whiteSpace=wrap;html=1;" parent="1" vertex="1">
                    <mxGeometry x="360" y="500" width="120" height="120" as="geometry"/>
                </mxCell>
                <mxCell id="23" value="Error" style="ellipse;whiteSpace=wrap;html=1;aspect=fixed;" parent="1" vertex="1">
                    <mxGeometry x="200" y="540" width="40" height="40" as="geometry"/>
                </mxCell>
            </root>
        </mxGraphModel>
    </diagram>
</mxfile>